<?xml version="1.0" standalone="no"?>
<!DOCTYPE svg PUBLIC "-//W3C//DTD SVG 20010904//EN"
 "http://www.w3.org/TR/2001/REC-SVG-20010904/DTD/svg10.dtd">
<svg version="1.0" xmlns="http://www.w3.org/2000/svg"
 width="547.000000pt" height="456.000000pt" viewBox="0 0 547.000000 456.000000"
 preserveAspectRatio="xMidYMid meet" fill="#ff608c">

<g transform="translate(0.000000,456.000000) scale(0.100000,-0.100000)" stroke="#000">
<path d="M2720 3579 c-129 -11 -200 -38 -265 -103 -38 -38 -45 -53 -60 -122
-22 -97 -28 -110 -59 -118 -82 -20 -213 -99 -275 -165 -98 -104 -97 -252 3
-353 100 -103 286 -189 411 -191 38 -1 64 -6 70 -15 17 -22 218 -34 365 -22
549 44 846 348 587 600 -55 53 -71 62 -91 54 -26 -10 -18 -27 27 -60 128 -94
146 -231 45 -336 -38 -39 -154 -118 -173 -118 -4 0 -21 -6 -38 -14 -101 -46
-164 -56 -356 -55 -288 0 -416 19 -544 79 -131 62 -191 117 -223 206 -17 49
-17 54 -1 96 19 50 65 101 111 125 29 15 29 14 -9 -23 -96 -92 -98 -191 -8
-291 24 -26 32 -30 48 -21 30 16 30 16 6 37 -12 11 -18 22 -13 25 6 3 13 -1
16 -10 3 -8 10 -13 15 -10 4 3 8 -5 8 -17 1 -49 2 -51 20 -36 15 13 15 12 5
-8 -16 -30 -16 -30 17 -47 142 -74 425 -107 622 -74 64 11 73 15 81 40 6 16
17 28 26 28 10 0 24 5 32 10 11 7 3 10 -28 10 -24 0 -41 -4 -38 -9 6 -10 -43
-25 -52 -16 -3 3 2 5 11 5 9 0 18 4 21 8 3 5 -79 10 -182 12 -277 4 -280 4
-276 11 2 4 -7 7 -21 7 -13 0 -40 7 -59 16 -19 9 -42 13 -52 9 -12 -4 -15 -3
-10 5 13 22 -11 12 -27 -10 -12 -17 -16 -19 -16 -8 -1 9 5 22 12 29 10 11 7
13 -13 8 -14 -3 -34 -1 -45 4 -16 7 -14 8 10 4 28 -5 29 -5 10 10 -11 8 -25
18 -30 23 -6 5 -15 7 -21 5 -6 -2 -14 6 -18 19 -5 20 -8 21 -17 8 -9 -13 -10
-12 -5 3 6 20 -16 61 -27 50 -4 -3 -7 0 -7 8 0 11 -2 11 -10 -1 -7 -12 -10 -8
-10 15 0 23 3 27 10 15 7 -11 10 -4 10 27 0 34 7 49 35 79 19 20 38 35 41 32
3 -3 0 -25 -6 -49 -27 -98 -8 -142 82 -196 84 -50 183 -74 338 -80 257 -10
463 51 523 155 19 32 19 35 2 103 -9 39 -14 73 -12 76 3 3 26 -14 51 -37 53
-49 72 -99 61 -157 -9 -49 -86 -125 -160 -159 -52 -24 -74 -47 -54 -59 16 -10
130 49 180 93 57 51 79 95 79 159 0 56 -34 119 -91 167 -19 16 -33 33 -31 38
1 5 -2 7 -7 4 -17 -11 -40 5 -50 36 -20 57 -16 60 44 37 34 -12 63 -18 77 -13
l22 7 -22 17 c-12 10 -51 28 -86 41 -69 25 -68 24 -91 149 -4 19 -18 52 -31
72 -24 38 -102 91 -126 86 -7 -1 -22 3 -33 9 -11 6 -24 12 -30 13 -5 1 -19 6
-30 10 -34 13 -107 16 -195 9z m471 -476 c49 -193 48 -206 -11 -254 -76 -61
-278 -106 -440 -96 -206 12 -389 82 -404 155 -3 15 2 59 12 97 10 39 31 120
47 180 15 61 29 112 31 114 2 2 17 -8 34 -23 17 -14 38 -26 46 -26 18 0 77
-29 85 -42 3 -5 43 -16 89 -25 147 -29 331 9 414 88 48 45 38 62 97 -168z
m-936 -261 c-3 -3 -11 0 -18 7 -9 10 -8 11 6 5 10 -3 15 -9 12 -12z m190 -142
c-3 -5 -14 -10 -23 -9 -14 0 -13 2 3 9 27 11 27 11 20 0z m45 0 c0 -5 -4 -10
-10 -10 -5 0 -10 5 -10 10 0 6 5 10 10 10 6 0 10 -4 10 -10z m35 -20 c-19 -7
-18 -8 5 -12 14 -3 5 -3 -20 -1 -62 6 -69 18 -12 19 32 1 40 -1 27 -6z m112
-16 c-3 -3 -12 -4 -19 -1 -8 3 -5 6 6 6 11 1 17 -2 13 -5z m247 -10 c21 -8 21
-24 0 -24 -8 0 -13 4 -9 9 3 5 -7 12 -22 14 -21 3 -22 4 -6 6 12 0 28 -2 37
-5z m82 -4 c-17 -6 -36 -5 -45 0 -11 7 -3 9 29 9 42 -1 43 -1 16 -9z m-181
-10 c-3 -5 -21 -10 -38 -9 -31 1 -31 1 -7 9 36 11 52 11 45 0z m58 -7 c-7 -2
-19 -2 -25 0 -7 3 -2 5 12 5 14 0 19 -2 13 -5z"/>
<path d="M3482 2423 c-5 -10 -15 -43 -22 -73 -7 -30 -25 -107 -41 -170 -46
-188 -79 -349 -79 -386 0 -32 2 -34 35 -34 19 0 35 4 35 9 0 5 13 83 29 172
16 90 35 198 42 239 l12 75 17 -100 c36 -213 75 -330 122 -370 47 -40 95 -30
123 26 20 38 51 182 60 278 7 78 37 190 62 227 8 12 28 27 44 33 27 9 30 15
27 43 -7 75 -90 27 -122 -70 -9 -26 -27 -123 -41 -217 -14 -93 -30 -186 -35
-205 -33 -123 -104 -102 -160 47 -22 60 -56 269 -64 395 -2 43 -7 82 -11 88
-9 15 -23 12 -33 -7z"/>
<path d="M1055 2418 c-27 -81 -89 -330 -130 -522 -18 -85 -23 -122 -15 -130
15 -15 26 6 35 58 3 23 16 77 28 121 l23 80 74 7 c41 5 97 15 125 24 199 64
315 236 226 336 -26 29 -35 33 -98 36 -59 3 -77 0 -119 -21 -28 -14 -56 -33
-63 -41 -19 -22 -34 -20 -21 3 5 11 10 29 10 40 0 17 -6 21 -35 21 -20 0 -37
-6 -40 -12z m302 -29 c35 -13 43 -25 43 -67 0 -69 -72 -163 -162 -208 -49 -25
-159 -53 -206 -54 -27 0 -27 -1 15 118 55 154 200 253 310 211z"/>
<path d="M2835 2360 c-8 -13 -45 -225 -45 -259 l0 -26 -13 25 c-38 72 -47 80
-96 80 -88 0 -147 -62 -135 -140 12 -72 64 -117 142 -121 71 -5 71 24 1 34
-88 12 -127 80 -75 132 25 25 69 33 92 17 21 -13 54 -86 54 -119 0 -17 3 -38
6 -47 8 -22 53 -20 84 4 24 18 26 18 45 1 29 -27 67 -32 99 -16 24 13 31 13
47 1 26 -18 64 -9 99 24 29 27 40 60 21 60 -5 0 -23 -13 -39 -30 -31 -30 -62
-40 -62 -19 0 13 55 121 82 161 33 49 14 77 -38 57 -15 -5 -36 -6 -48 -3 -21
7 -55 7 -89 1 -48 -9 -107 -95 -107 -156 0 -20 -8 -35 -22 -46 -32 -22 -34 -5
-10 79 47 163 72 264 72 289 0 23 -4 27 -29 27 -17 0 -33 -5 -36 -10z m199
-226 c24 -9 19 -42 -17 -114 -27 -54 -36 -65 -57 -65 -24 0 -25 2 -25 63 0 59
3 66 33 93 34 30 41 33 66 23z"/>
<path d="M1842 2288 c-6 -40 -14 -98 -18 -128 -3 -30 -10 -64 -14 -75 -6 -17
-10 -14 -29 22 -28 57 -68 77 -120 63 -63 -17 -114 -95 -97 -148 7 -20 -27
-72 -46 -72 -17 0 -1 57 37 139 37 77 36 95 -6 89 -21 -3 -27 -15 -50 -104
-31 -119 -33 -124 -63 -124 -56 0 -59 42 -10 139 36 72 37 91 5 91 -26 0 -36
-16 -55 -92 -29 -118 -16 -168 45 -168 106 -1 117 1 143 21 l28 22 36 -20 c43
-23 103 -35 122 -23 20 13 2 30 -33 30 -41 0 -95 33 -107 65 -18 48 25 105 81
105 44 0 76 -50 87 -138 6 -49 10 -57 30 -60 13 -2 35 4 48 13 23 15 27 15 43
1 12 -11 35 -15 73 -14 l57 1 21 56 c26 68 67 141 80 141 15 0 12 -62 -4 -108
-10 -27 -11 -44 -5 -48 14 -8 19 -2 54 68 34 69 70 102 81 74 4 -9 -3 -47 -15
-83 -23 -71 -21 -98 9 -106 25 -6 78 27 92 58 18 39 1 42 -37 5 -19 -18 -38
-30 -42 -26 -4 4 3 35 16 69 43 116 38 157 -20 157 -19 0 -34 -8 -45 -25 -18
-27 -34 -33 -34 -11 0 23 -27 39 -46 28 -12 -7 -24 -6 -36 1 -32 21 -52 -3
-71 -89 -11 -43 -24 -90 -30 -103 -15 -29 -54 -46 -73 -30 -21 18 -17 47 21
134 36 82 34 96 -9 88 -21 -4 -24 -14 -36 -89 -10 -70 -16 -88 -37 -104 -14
-11 -29 -20 -33 -20 -12 0 9 109 45 236 44 152 44 164 6 164 -27 0 -29 -2 -39
-72z"/>
<path d="M1936 2275 c-13 -66 23 -77 53 -16 23 43 20 51 -20 51 -23 0 -28 -5
-33 -35z"/>
<path d="M4005 2173 c-42 -11 -116 -78 -141 -129 -26 -54 -24 -85 10 -113 27
-23 127 -16 187 13 53 25 54 25 75 5 23 -21 82 -42 95 -33 17 10 8 24 -25 38
-19 8 -39 23 -45 34 -35 66 21 160 90 150 23 -3 24 -6 21 -63 -8 -147 -52
-293 -99 -323 -21 -13 -25 -12 -51 18 -31 33 -64 38 -70 10 -3 -18 53 -57 94
-66 62 -12 118 69 160 233 13 52 25 124 26 161 l3 67 -50 1 c-65 2 -113 -12
-146 -43 l-26 -24 -7 24 c-5 22 -52 50 -75 46 -3 -1 -15 -4 -26 -6z m40 -62
c14 -23 -79 -67 -123 -59 -14 3 -12 7 8 27 39 37 101 54 115 32z m47 -78 c-4
-39 -7 -43 -52 -62 -85 -37 -168 -23 -158 25 2 13 21 21 76 30 39 7 87 21 104
32 18 12 33 20 34 19 0 -1 -1 -21 -4 -44z"/>
<path d="M4430 2158 c-102 -52 -121 -205 -29 -237 25 -9 38 -8 62 4 21 10 34
12 41 5 5 -5 25 -10 42 -10 38 0 94 42 94 71 0 27 -12 24 -45 -11 -24 -25 -65
-41 -65 -25 0 13 38 97 67 148 18 33 30 63 27 68 -7 12 -48 11 -60 -1 -8 -8
-19 -8 -38 0 -38 14 -46 13 -96 -12z m97 -34 c15 -41 -54 -174 -90 -174 -23 0
-37 23 -37 61 0 47 13 82 40 109 24 24 78 27 87 4z"/>
<path d="M1448 1704 c-5 -4 -8 -45 -8 -91 l0 -83 43 0 c68 0 87 20 87 89 0 37
-5 63 -14 70 -16 14 -98 26 -108 15z m76 -24 c23 -8 26 -15 26 -58 0 -57 -12
-72 -57 -72 l-33 0 0 70 c0 77 6 82 64 60z"/>
<path d="M1804 1697 c-3 -8 -4 -47 -2 -88 l3 -74 48 -3 c28 -2 47 1 47 7 0 6
-16 11 -35 11 -32 0 -35 2 -35 30 0 23 4 30 20 30 11 0 20 5 20 10 0 6 -9 10
-20 10 -16 0 -20 7 -20 30 0 28 3 30 35 30 19 0 35 5 35 10 0 16 -90 12 -96
-3z"/>
<path d="M3125 1698 c-2 -7 -3 -47 -2 -88 l2 -75 50 -3 c54 -3 54 14 0 20 -24
2 -31 8 -33 31 -3 21 2 29 20 36 l23 10 -23 0 c-19 1 -23 6 -20 29 2 22 8 28
36 30 18 2 30 8 27 13 -9 14 -75 11 -80 -3z"/>
<path d="M3468 1704 c-12 -11 -10 -164 2 -164 6 0 10 17 10 37 l0 37 36 -42
c44 -52 66 -56 27 -5 -19 25 -24 38 -15 41 34 11 58 71 34 86 -17 10 -87 18
-94 10z m77 -24 c14 -22 -6 -50 -36 -50 -26 0 -29 3 -29 30 0 27 3 30 29 30
17 0 33 -5 36 -10z"/>
<path d="M2147 1689 c-4 -9 -7 -47 -5 -85 l3 -69 39 -3 c21 -2 43 1 49 7 8 8
-1 11 -31 11 l-41 0 -3 78 c-2 46 -6 71 -11 61z"/>
<path d="M2491 1623 c-1 -49 3 -83 9 -83 12 0 12 117 0 145 -6 13 -9 -7 -9
-62z"/>
<path d="M2850 1654 c-11 -27 -24 -58 -29 -69 -7 -17 -11 -13 -29 29 -12 27
-22 52 -22 57 0 4 -4 10 -9 13 -11 7 1 -47 24 -108 10 -25 24 -46 31 -46 12 0
68 159 59 169 -3 2 -14 -18 -25 -45z"/>
<path d="M3800 1693 c0 -5 12 -30 25 -58 14 -27 25 -60 25 -72 0 -13 5 -23 10
-23 6 0 10 14 10 30 0 17 11 53 25 80 18 36 22 50 12 50 -7 0 -21 -16 -30 -36
-19 -39 -29 -38 -47 6 -11 27 -30 42 -30 23z"/>
<path d="M1822 1257 c-87 -84 -104 -96 -151 -106 -95 -20 -151 -58 -151 -101
0 -56 57 -43 154 35 47 38 78 55 97 55 35 0 35 -4 8 -64 -19 -44 -19 -66 2
-66 5 0 9 6 9 13 0 22 51 117 63 117 7 0 19 5 27 10 11 8 12 12 3 18 -9 6 1
27 38 77 52 72 58 98 22 103 -16 2 -48 -21 -121 -91z m112 51 c-4 -7 -32 -43
-62 -80 -46 -58 -59 -68 -86 -68 -31 0 -30 1 50 80 45 44 87 80 93 80 7 0 9
-5 5 -12z m-265 -194 c-36 -43 -129 -91 -129 -66 0 22 89 81 124 82 16 0 17
-2 5 -16z"/>
<path d="M2014 1201 c-32 -43 -43 -51 -70 -51 -23 0 -43 -10 -68 -34 -57 -53
-41 -104 25 -79 16 6 29 8 29 3 0 -17 34 -20 57 -4 23 14 26 14 42 0 22 -20
41 -20 67 -2 28 20 65 22 92 6 28 -19 29 -50 2 -50 -11 0 -20 -5 -20 -11 0 -6
12 -9 28 -7 20 2 28 9 30 28 2 19 12 28 38 36 19 6 37 8 39 3 3 -4 42 -7 88
-6 l83 2 45 48 c55 57 94 67 54 13 -21 -28 -19 -66 3 -66 9 0 23 4 31 9 9 6
21 5 32 -2 13 -8 24 -8 42 0 19 9 27 8 39 -4 14 -13 19 -13 46 1 27 14 31 14
43 0 7 -9 22 -13 33 -11 49 12 120 43 124 56 3 9 -2 11 -15 7 -15 -5 -19 -1
-18 20 1 62 -64 56 -130 -11 -42 -44 -65 -56 -65 -34 0 18 47 79 89 115 40 35
55 74 27 74 -8 0 -34 -22 -57 -50 -31 -37 -49 -50 -68 -50 -31 0 -53 -14 -105
-66 -42 -42 -58 -40 -26 3 28 39 18 63 -26 63 -28 0 -43 -9 -77 -45 -24 -25
-51 -45 -60 -45 -23 0 -21 13 3 35 26 24 25 41 -2 49 -45 12 -67 5 -105 -30
-53 -51 -74 -64 -100 -64 -44 0 -39 41 8 66 26 13 29 13 29 -2 0 -8 6 -14 13
-11 6 2 12 12 12 23 0 14 -8 20 -31 22 -24 2 -39 -5 -72 -37 -23 -23 -43 -41
-45 -41 -2 0 -1 16 1 35 5 43 -13 53 -69 36 -25 -8 -44 -21 -53 -39 -15 -29
-61 -57 -70 -43 -8 12 37 72 89 118 46 41 54 65 22 71 -9 2 -31 -17 -53 -47z
m-64 -85 c0 -17 -46 -56 -66 -56 -22 0 -16 16 17 44 34 29 49 33 49 12z m176
-1 c4 -8 0 -22 -7 -31 -11 -13 -14 -13 -27 0 -17 17 -9 46 13 46 9 0 18 -7 21
-15z m284 1 c0 -17 -46 -56 -66 -56 -22 0 -16 19 12 45 30 28 54 32 54 11z
m330 7 c0 -13 -53 -63 -67 -63 -22 0 -15 27 13 49 26 21 54 28 54 14z m173 0
c7 -12 -11 -53 -23 -53 -14 0 -24 26 -16 45 6 16 32 21 39 8z m-839 -76 c-20
-12 -37 4 -28 27 6 16 8 16 26 0 17 -16 17 -19 2 -27z m783 24 c10 -15 9 -20
-1 -24 -18 -7 -26 1 -26 25 0 23 12 23 27 -1z"/>
<path d="M3824 1201 c-32 -43 -43 -51 -70 -51 -25 0 -45 -12 -89 -51 -30 -29
-58 -49 -62 -45 -3 3 10 30 30 60 20 30 33 57 29 60 -13 8 -87 -92 -87 -117 0
-25 37 -36 60 -17 9 7 15 8 20 0 8 -13 48 -13 62 1 9 9 16 8 28 -5 20 -20 25
-20 52 -1 12 9 24 11 27 6 11 -17 138 -7 169 13 15 10 27 22 27 27 0 13 -7 11
-35 -7 -39 -25 -50 -12 -20 24 l27 32 -27 10 c-50 19 -75 10 -143 -52 -23 -21
-47 -36 -52 -33 -16 10 18 59 78 116 53 50 61 71 29 77 -9 2 -31 -17 -53 -47z
m-64 -85 c0 -8 -13 -24 -29 -35 -53 -38 -69 -22 -25 23 29 29 54 34 54 12z
m174 5 c7 -11 -50 -61 -70 -61 -21 0 -17 14 12 44 27 27 49 33 58 17z"/>
<path d="M3566 1146 c-8 -32 -69 -96 -91 -96 -16 0 -16 2 -3 23 36 55 42 67
35 73 -17 18 -84 -84 -73 -112 14 -36 90 5 135 73 34 52 37 63 17 63 -8 0 -17
-11 -20 -24z"/>
<path d="M3156 1131 c-75 -50 -62 -132 14 -91 13 7 21 7 25 0 12 -19 51 -10
85 20 20 16 29 29 21 30 -8 0 -22 -7 -32 -16 -10 -9 -25 -14 -35 -12 -15 3
-13 8 11 36 15 18 25 35 22 38 -3 3 -23 8 -44 10 -27 4 -46 -1 -67 -15z m64
-8 c0 -13 -53 -63 -67 -63 -22 0 -15 27 13 49 26 21 54 28 54 14z"/>
</g>
</svg>
